<?xml version="1.0" encoding="utf-8"?><!-- Uploaded to: SVG Repo, www.svgrepo.com, Generator: SVG Repo Mixer Tools -->
<svg width="800px" height="800px" viewBox="0 0 64 64" fill="none" xmlns="http://www.w3.org/2000/svg">
<path d="M16 13C16 10.2386 18.2386 8 21 8H44L54 18V51C54 53.7614 51.7614 56 49 56H21C18.2386 56 16 53.7614 16 51V13Z" fill="#0F277F"/>
<path d="M54 18H47C45.3431 18 44 16.6569 44 15V8L54 18Z" fill="#FDAFA4"/>
<path d="M10.0779 25.5467C10.1638 24.2082 11.2235 23.1914 12.5482 22.9813C14.0166 22.7484 15.9288 22.3953 17.4019 21.9493C19.2097 21.4019 21.6785 20.3141 23.1773 19.6236C24.016 19.2371 24.984 19.2371 25.8227 19.6236C27.3215 20.3141 29.7903 21.4019 31.5981 21.9493C33.0712 22.3953 34.9834 22.7484 36.4518 22.9813C37.7765 23.1914 38.8362 24.2082 38.9221 25.5467C39.2898 31.2723 38.8912 46.2668 25.3335 50.743C24.7991 50.9195 24.201 50.9195 23.6665 50.743C10.1088 46.2668 9.71015 31.2723 10.0779 25.5467Z" fill="#FDAFA4"/>
<path fill-rule="evenodd" clip-rule="evenodd" d="M22.5932 46.2918C21.9605 46.0052 21.3733 45.6827 20.8285 45.3295L26.1001 23.7698C26.6445 24.0222 27.2753 24.3048 27.9055 24.5659L22.5932 46.2918ZM24.1978 23.3704L19.1465 44.0288C17.8515 42.8421 16.8724 41.4532 16.1356 39.9836L19.7817 25.0719C20.8702 24.692 22.1753 24.11 23.1367 23.6594C23.4748 23.501 23.834 23.4047 24.1978 23.3704Z" fill="white"/>
<path d="M14.0268 28.4791C14.0835 27.1377 15.1414 26.1162 16.4631 25.8801C17.4091 25.7111 18.4902 25.4847 19.36 25.2119C20.5168 24.8492 22.0474 24.1699 23.1368 23.6594C23.9996 23.255 25.0004 23.255 25.8632 23.6594C26.9526 24.1699 28.4832 24.8492 29.64 25.2119C30.5098 25.4847 31.5909 25.7111 32.5369 25.8801C33.8586 26.1162 34.9165 27.1377 34.9732 28.4791C35.1678 33.0821 34.5256 43.4032 25.3532 46.7195C24.8058 46.9174 24.1942 46.9174 23.6468 46.7195C14.4744 43.4032 13.8322 33.0821 14.0268 28.4791Z" stroke="#0F277F" stroke-width="2"/>
</svg>